<?xml version="1.0" standalone="no"?>
<!DOCTYPE svg PUBLIC "-//W3C//DTD SVG 20010904//EN"
 "http://www.w3.org/TR/2001/REC-SVG-20010904/DTD/svg10.dtd">
<svg version="1.0" xmlns="http://www.w3.org/2000/svg"
 width="860.000000pt" height="927.000000pt" viewBox="0 0 860.000000 927.000000"
 preserveAspectRatio="xMidYMid meet">

<g transform="translate(0.000000,927.000000) scale(0.100000,-0.100000)"
fill="currentColor" stroke="none">
<path d="M3704 8853 l-52 -4 -4 -47 c-7 -60 -60 -143 -110 -172 -48 -27 -131
-55 -237 -80 -47 -12 -129 -34 -181 -50 -52 -16 -133 -38 -180 -49 -109 -25
-215 -63 -312 -112 -87 -44 -96 -46 -77 -22 9 11 -5 7 -41 -12 -36 -19 -96
-71 -177 -153 -68 -69 -123 -128 -123 -132 0 -4 -21 -25 -47 -46 -38 -31 -45
-34 -41 -17 3 11 2 26 -1 32 -5 7 -28 -22 -58 -71 -28 -46 -60 -94 -70 -107
l-20 -25 4 30 c3 20 -1 35 -11 43 -9 8 -18 12 -19 10 -1 -2 -13 -24 -26 -49
-24 -46 -69 -100 -82 -100 -9 0 18 64 91 215 26 55 55 117 65 139 9 21 33 56
52 77 19 21 33 39 30 39 -12 0 -94 -61 -141 -104 -27 -25 -52 -46 -56 -46 -6
0 -50 -90 -50 -103 0 -3 7 -4 15 -1 8 3 19 3 25 -1 15 -10 -7 -35 -31 -35 -23
0 -73 -49 -122 -121 -44 -64 -71 -165 -82 -304 -6 -78 -12 -98 -44 -152 -39
-68 -50 -73 -105 -45 -49 24 -59 52 -50 139 4 51 3 73 -5 73 -6 0 -11 -1 -11
-2 0 -2 -14 -56 -30 -122 -33 -129 -38 -203 -16 -212 7 -3 40 4 72 14 33 11
62 17 67 15 15 -9 -5 -23 -59 -40 -55 -17 -56 -18 -35 -34 20 -16 20 -19 6
-53 -9 -20 -12 -36 -7 -36 4 0 17 -6 27 -14 18 -13 18 -15 -13 -50 -34 -39
-34 -56 -1 -56 11 0 17 -4 14 -10 -3 -5 -20 -7 -38 -4 -32 5 -32 5 -8 -9 l24
-15 -63 -46 c-101 -75 -115 -93 -112 -147 4 -47 -6 -67 -66 -143 -16 -21 -25
-26 -34 -18 -10 7 -26 -6 -63 -54 -27 -35 -53 -60 -56 -56 -4 4 -20 47 -35 95
l-27 89 -18 -29 c-10 -16 -28 -85 -40 -153 -22 -119 -38 -160 -64 -160 -16 0
-56 56 -81 114 -19 43 -22 46 -27 25 -4 -13 -7 -36 -7 -51 0 -53 -16 -27 -60
95 -24 67 -50 132 -57 143 -8 12 -20 50 -27 85 l-13 64 -8 -145 c-9 -179 -3
-297 18 -375 19 -71 20 -78 7 -70 -13 8 -13 -11 2 -52 10 -27 10 -38 0 -54
-25 -40 15 -138 92 -229 25 -30 43 -56 41 -59 -13 -13 426 -123 475 -119 35 3
35 3 -41 45 -71 40 -128 87 -118 98 3 2 29 -2 59 -10 69 -18 200 -31 199 -19
0 5 -27 22 -61 38 -90 42 -132 92 -68 80 16 -4 69 -3 117 1 71 7 82 10 55 15
-18 4 -42 16 -52 25 -19 17 -19 19 -2 31 10 8 46 13 91 14 l73 0 -4 31 c-4 25
0 33 19 42 12 5 23 18 23 27 0 36 25 43 129 36 l99 -7 -14 41 c-8 23 -12 45
-9 50 3 5 26 16 50 26 47 17 72 15 153 -17 53 -21 54 -7 6 73 -41 68 -39 73
33 84 41 6 42 7 45 47 l3 41 85 27 c102 33 190 50 190 37 0 -5 -8 -12 -17 -16
-49 -21 -83 -48 -79 -62 3 -8 12 -35 21 -60 16 -42 16 -53 0 -170 -22 -155
-85 -383 -131 -470 -86 -164 -266 -280 -546 -353 -193 -51 -347 -71 -471 -63
-55 3 -99 4 -96 2 2 -3 43 -10 91 -16 85 -11 150 -8 371 16 142 16 -5 -45
-160 -67 -46 -6 -83 -14 -83 -17 0 -8 184 7 263 22 65 13 385 133 462 174 105
56 211 138 319 247 65 66 128 134 140 151 11 17 45 60 75 95 52 61 151 247
151 284 0 8 5 15 10 15 6 0 10 -9 10 -20 0 -12 7 -49 16 -84 14 -58 14 -66 0
-94 -22 -42 -21 -45 14 -38 26 5 32 2 40 -20 21 -54 13 -80 -41 -128 -50 -45
-50 -45 -25 -52 14 -3 40 -1 58 5 81 29 56 -55 -46 -151 -69 -66 -70 -68 -41
-68 17 0 59 9 93 20 35 11 70 20 78 20 21 0 18 -63 -3 -82 -30 -26 -124 -75
-197 -103 -39 -14 -72 -28 -75 -32 -4 -3 80 -3 184 0 166 6 200 10 268 32 124
40 137 49 130 88 -5 33 -5 33 53 50 69 20 173 37 227 37 72 0 151 -59 164
-122 3 -16 7 -28 8 -28 13 0 65 24 65 30 0 29 -128 107 -247 150 -66 24 -81
40 -36 40 l26 0 -23 25 c-25 27 -150 105 -167 105 -7 0 -21 13 -32 29 -17 24
-21 44 -21 115 0 76 4 96 36 173 20 49 61 137 91 198 l55 109 -17 48 -17 48
33 41 c28 36 31 44 20 63 -6 11 35 -27 91 -85 57 -58 125 -118 152 -134 44
-26 52 -27 80 -16 17 7 75 28 128 46 84 29 107 42 175 101 43 37 80 69 82 71
7 6 -103 -7 -204 -23 -49 -9 -110 -17 -135 -20 l-45 -5 30 20 c17 11 67 26
111 35 134 25 170 43 301 147 l71 58 59 -6 58 -6 -79 67 c-93 79 -129 101
-281 171 -129 59 -110 58 -290 11 l-100 -27 -110 19 -110 19 123 -5 123 -5 -7
29 c-4 16 -11 39 -15 52 -8 20 -3 25 47 49 51 24 59 25 106 15 51 -12 246 -17
235 -6 -3 4 -41 21 -84 38 -43 18 -103 45 -133 62 l-55 29 85 5 85 5 -107 54
c-77 39 -108 60 -108 72 0 16 -7 17 -52 12 -29 -3 -81 -14 -115 -23 -73 -20
-72 -7 2 26 94 41 165 55 310 61 123 5 151 3 229 -17 99 -25 249 -101 319
-162 l42 -37 -60 -1 -60 -1 50 -32 c75 -48 199 -151 233 -194 27 -36 50 -113
33 -113 -4 0 -16 10 -27 21 -18 21 -154 93 -161 86 -2 -2 35 -61 83 -131 106
-158 147 -243 164 -339 12 -71 14 -75 41 -81 38 -7 37 -25 -1 -32 -25 -6 -30
-11 -31 -38 0 -17 -4 -84 -7 -148 -7 -110 -6 -117 12 -115 34 4 41 -25 24 -94
-9 -35 -20 -73 -24 -83 -5 -13 -4 -17 3 -13 22 14 74 172 82 247 7 70 8 73 19
46 7 -16 10 -51 7 -85 -3 -31 -7 -81 -9 -111 -7 -92 -95 -283 -188 -405 -33
-44 -43 -63 -29 -56 31 17 151 27 151 12 0 -6 7 -11 15 -11 30 0 14 -38 -35
-84 -50 -47 -70 -56 -70 -33 0 6 -11 -1 -23 -18 -12 -16 -48 -60 -80 -97 -56
-66 -87 -84 -87 -52 0 9 -32 -25 -70 -75 -39 -50 -84 -101 -100 -113 -17 -12
-30 -27 -30 -34 0 -7 -20 -20 -45 -29 -38 -15 -42 -19 -30 -32 8 -8 15 -22 15
-32 0 -37 -25 -55 -250 -176 -93 -50 -318 -192 -345 -218 -5 -5 9 0 32 12 23
11 70 31 105 45 34 13 145 60 245 104 153 69 639 241 748 267 45 10 19 -9 -40
-30 -27 -9 -129 -44 -225 -77 -96 -33 -186 -68 -200 -77 -14 -10 -140 -77
-280 -148 -228 -117 -296 -152 -420 -213 -161 -80 -367 -212 -339 -218 20 -4
167 63 194 88 24 22 100 53 116 48 7 -2 -8 -16 -34 -31 -25 -15 -52 -36 -59
-46 -7 -10 -39 -35 -70 -56 -32 -21 -58 -40 -58 -42 0 -3 24 9 53 25 89 51
196 73 427 88 58 3 114 10 125 15 19 7 19 8 1 8 -14 1 -16 4 -7 14 7 9 7 17 0
24 -5 5 -7 22 -4 36 9 32 74 57 154 57 31 0 83 4 116 9 33 5 80 12 105 16 l45
7 -25 -21 c-14 -11 -86 -52 -160 -91 -74 -39 -126 -69 -115 -66 11 3 32 7 46
10 15 2 35 9 45 14 89 49 152 67 280 81 58 7 97 20 174 57 101 48 118 67 86
93 -11 9 -20 10 -35 1 -12 -6 -21 -7 -21 -2 0 5 11 14 25 20 27 13 29 21 16
66 -30 98 -44 154 -47 176 -1 14 -4 32 -6 40 -1 8 1 16 7 18 5 2 13 -10 17
-25 4 -15 20 -77 35 -138 l29 -110 33 3 c24 3 32 0 29 -10 -3 -7 -15 -14 -27
-16 -18 -3 -22 -8 -17 -25 3 -12 6 -25 6 -29 0 -15 119 4 229 36 64 19 135 38
158 41 24 4 45 11 48 16 10 15 -45 22 -132 15 -64 -5 -92 -3 -116 8 -18 8 -41
16 -51 18 -32 5 -30 26 5 47 17 11 88 41 156 67 l124 47 30 -36 c17 -20 35
-37 40 -37 6 0 36 17 67 39 31 21 113 66 182 101 69 34 127 64 129 66 3 3 0 9
-7 16 -8 8 -36 7 -109 -6 -114 -18 -141 -20 -127 -7 13 13 141 63 287 112 67
23 133 46 146 51 l25 9 -30 15 c-24 13 -58 14 -214 9 -102 -4 -225 -13 -275
-21 -120 -19 -133 -17 -55 7 82 26 74 25 335 45 l219 18 45 44 c26 26 83 64
140 93 126 63 163 87 156 99 -3 5 -1 27 5 49 13 49 93 124 180 169 l60 30 -78
7 c-42 3 -84 10 -93 15 -9 5 -75 12 -148 16 -72 4 -131 10 -131 13 0 14 43 32
88 37 26 4 56 8 67 9 11 2 31 4 45 5 22 0 23 2 7 11 -9 5 -21 8 -26 4 -14 -8
-61 13 -61 28 0 18 44 41 124 66 91 28 106 28 78 -2 -27 -29 -27 -39 -2 -55
22 -14 137 -32 190 -30 29 1 30 2 8 5 -15 2 -42 19 -62 36 -31 29 -33 34 -22
56 8 14 40 35 82 53 38 17 78 38 89 48 11 10 40 27 65 39 l45 21 -184 -6
c-119 -3 -181 -2 -177 5 12 20 102 62 143 68 24 3 43 10 43 14 0 5 7 9 15 9
21 0 19 10 -12 42 -31 32 -22 52 30 64 18 3 47 19 65 35 18 16 40 29 50 30 11
1 8 4 -8 9 -14 4 -79 8 -145 9 -102 1 -127 -2 -160 -19 -52 -27 -58 -26 -94
15 -34 39 -43 82 -15 71 14 -5 16 -1 11 23 -9 44 10 54 90 49 63 -5 70 -3 89
20 14 17 42 30 89 42 l69 17 -44 8 c-25 5 -77 8 -117 7 -180 -5 -36 64 187 88
101 11 140 20 89 20 -13 0 -42 7 -64 15 -22 8 -53 14 -68 15 -16 0 -48 13 -71
29 -61 42 -82 45 -167 21 -98 -27 -218 -37 -258 -20 -32 13 -43 47 -18 55 16
5 86 14 115 15 13 0 20 4 17 10 -4 6 6 10 22 10 51 0 56 10 42 77 -16 78 -10
93 38 93 38 1 38 1 13 15 -26 14 -24 16 25 29 11 3 -2 3 -30 0 -80 -9 -85 -8
-185 14 -234 53 -271 60 -290 55 -11 -3 -20 -1 -20 5 0 7 68 9 213 7 163 -4
202 -2 167 6 -55 13 -93 45 -70 59 12 8 9 10 -11 10 -27 0 -124 65 -166 111
-29 32 -21 61 20 81 31 15 26 15 -98 17 l-130 1 -55 55 c-51 51 -55 59 -55
101 0 37 5 50 25 66 21 17 33 19 80 13 30 -4 77 -15 104 -26 42 -16 47 -16 34
-2 -32 31 -389 103 -515 103 -32 0 -75 6 -98 14 -22 8 -66 20 -97 27 -111 24
-63 31 177 26 130 -2 234 -3 232 -1 -13 14 -262 98 -337 114 -52 11 -112 25
-132 31 -39 10 -51 28 -20 30 9 0 -5 8 -31 17 -27 9 -48 22 -47 27 4 14 108
52 167 61 47 8 48 8 15 15 -68 14 -410 -31 -580 -77 -106 -29 -131 -28 -80 4
36 22 235 91 267 93 9 0 48 11 86 23 l70 23 -55 6 c-90 10 -432 1 -463 -12
-63 -25 -89 2 -37 39 47 34 188 90 247 100 49 7 38 8 -62 6 -107 -3 -132 -7
-225 -39 -58 -19 -130 -38 -160 -42 -89 -10 -110 -16 -110 -30 0 -20 -48 -33
-154 -40 -114 -8 -99 -1 -315 -157 -122 -89 -164 -112 -132 -74 29 35 240 191
397 293 16 10 14 11 -11 2 -16 -6 -68 -24 -115 -41 -96 -33 -203 -92 -271
-149 -42 -34 -59 -40 -59 -18 0 17 55 71 91 90 22 11 39 26 39 33 0 8 18 29
40 46 23 18 39 35 36 37 -5 5 -81 -40 -282 -169 -57 -38 -110 -68 -117 -68
-29 0 -90 -50 -137 -115 -28 -38 -56 -70 -61 -69 -5 1 -13 2 -18 3 -5 0 -11
13 -14 29 -4 20 2 38 24 69 16 23 29 46 29 51 0 5 10 22 23 38 l22 29 -29 -22
c-29 -23 -56 -30 -56 -15 0 11 146 152 188 181 17 12 32 20 32 16 0 -6 148 91
165 108 6 6 -15 -3 -45 -20 -55 -31 -75 -41 -160 -83 -214 -107 -438 -295
-471 -396 -6 -17 -130 -114 -146 -114 -43 0 119 250 240 369 32 32 53 60 50
68 -7 18 75 95 147 137 30 18 111 56 180 85 69 30 159 70 200 91 41 21 129 54
195 75 157 49 306 125 359 184 25 28 67 132 52 129 -6 -1 -34 -3 -62 -5z m267
-658 c-41 -20 -76 -34 -78 -32 -8 9 49 50 79 57 70 17 70 8 -1 -25z m-883
-225 c-30 -36 -68 -53 -68 -31 0 13 72 71 88 71 8 0 -1 -17 -20 -40z m522 -53
c-47 -23 -111 -59 -143 -80 -31 -20 -60 -37 -63 -37 -4 0 -44 -34 -90 -75 -77
-68 -87 -74 -117 -68 -71 14 -72 15 -6 69 42 36 99 68 187 107 70 31 163 72
207 91 111 49 128 44 25 -7z m-604 8 c-3 -9 -11 -13 -16 -10 -8 5 -7 11 1 21
14 18 24 11 15 -11z m-787 -97 c-12 -24 -34 -61 -49 -83 -47 -69 -58 -99 -71
-189 -10 -71 -10 -89 0 -96 10 -6 9 -13 -4 -34 -10 -14 -21 -26 -26 -26 -5 0
-9 -7 -9 -15 0 -8 -4 -14 -9 -13 -5 2 -25 -15 -45 -37 -23 -26 -35 -34 -36
-24 -1 42 22 125 54 191 19 40 54 116 78 168 47 101 130 230 136 212 2 -6 -7
-30 -19 -54z m422 45 c-5 -10 -15 -38 -22 -63 -13 -46 -68 -110 -95 -110 -25
0 -15 37 25 91 22 30 47 64 56 77 19 27 50 31 36 5z m2499 -103 c8 -5 12 -12
9 -15 -8 -8 -39 5 -39 16 0 11 11 11 30 -1z m120 -8 l45 -7 -39 -23 c-39 -23
-40 -23 -65 -5 -53 40 -37 49 59 35z m-1300 -87 c52 -8 124 -23 160 -34 l65
-19 -143 -1 c-189 -1 -358 -17 -512 -47 -69 -14 -134 -27 -145 -31 -18 -5 -17
-3 5 21 30 33 192 116 229 117 14 0 35 4 46 9 26 11 173 3 295 -15z m335 -75
c8 -13 -45 -13 -65 0 -11 7 -6 10 22 10 20 0 40 -4 43 -10z m-1170 -150 c-8
-13 -35 -13 -55 0 -11 7 -5 10 23 10 23 0 36 -4 32 -10z m-185 -89 c0 -15 -16
-22 -35 -15 -13 5 -14 8 -3 15 18 12 38 11 38 0z m-93 -83 c-40 -51 -98 -167
-113 -226 l-12 -53 116 7 116 7 -27 -32 c-43 -51 -67 -147 -67 -266 0 -57 -4
-106 -8 -109 -4 -3 -69 -14 -143 -26 -119 -18 -187 -29 -269 -45 -61 -12 76
28 170 50 126 28 156 39 158 57 1 7 3 55 6 107 6 103 26 179 56 206 28 25 25
35 -7 30 -117 -18 -195 -27 -200 -22 -9 10 57 159 89 199 37 48 140 148 152
148 5 0 -3 -15 -17 -32z m2983 -28 c0 -5 -7 -7 -15 -4 -8 4 -15 8 -15 10 0 2
7 4 15 4 8 0 15 -4 15 -10z m-4060 -20 c0 -5 -12 -10 -27 -9 -25 0 -26 1 -8 9
27 12 35 12 35 0z m537 -28 c-14 -15 -37 -49 -52 -75 -42 -81 -93 -133 -159
-165 -70 -35 -173 -68 -181 -60 -6 6 19 58 45 93 22 30 65 59 177 116 54 28
117 69 141 91 48 44 71 44 29 0z m-727 8 c13 -9 13 -11 0 -20 -21 -14 -40 -12
-40 3 0 26 16 33 40 17z m50 -4 c0 -2 -7 -6 -15 -10 -8 -3 -15 -1 -15 4 0 6 7
10 15 10 8 0 15 -2 15 -4z m-79 -79 c-1 -12 -15 -9 -19 4 -3 6 1 10 8 8 6 -3
11 -8 11 -12z m1912 -297 c9 0 17 -5 17 -10 0 -11 -45 -3 -70 12 -11 7 -8 8
10 4 14 -3 33 -6 43 -6z m-93 -46 c32 -10 48 -20 38 -22 -10 -2 -41 8 -70 22
-58 29 -52 29 32 0z m2503 -21 c-7 -2 -21 -2 -30 0 -10 3 -4 5 12 5 17 0 24
-2 18 -5z m45 -53 c-9 -6 -20 -24 -23 -41 -7 -31 -8 -31 -57 -27 -57 6 -75 24
-51 50 16 18 42 24 108 26 30 1 36 -1 23 -8z m-3511 -186 c-3 -3 -12 -4 -19
-1 -8 3 -5 6 6 6 11 1 17 -2 13 -5z m53 -304 c-12 -57 -90 -254 -97 -247 -2 3
15 53 39 113 l42 109 -1 140 c-1 89 3 147 10 160 17 29 22 -202 7 -275z m416
258 c-3 -13 -6 -32 -6 -43 0 -15 -12 -24 -50 -36 -28 -8 -50 -13 -50 -11 0 9
95 110 104 111 4 1 6 -9 2 -21z m1784 -118 c0 -5 -4 -10 -9 -10 -6 0 -13 5
-16 10 -3 6 1 10 9 10 9 0 16 -4 16 -10z m1350 -73 c-34 -9 -44 -16 -42 -30 4
-21 -7 -21 -59 0 -38 15 -40 17 -23 30 11 8 45 13 93 12 l76 -1 -45 -11z
m-4959 -149 c-53 -35 -67 -51 -92 -104 -16 -35 -29 -68 -29 -74 0 -5 -4 -10
-9 -10 -4 0 -11 21 -14 48 -4 34 -1 52 10 64 24 27 163 118 180 118 9 0 -12
-19 -46 -42z m1801 7 c1 -19 2 -42 2 -52 1 -11 -9 -17 -29 -20 -16 -2 -42 -8
-57 -13 -16 -5 -28 -6 -28 -2 0 19 86 121 103 122 4 0 8 -16 9 -35z m3183 -63
c-16 -10 -59 -28 -95 -39 -36 -12 -74 -25 -85 -29 -17 -7 -16 -3 8 28 15 20
27 41 27 47 0 7 32 11 88 11 l87 0 -30 -18z m-3175 -186 c0 -32 -45 -64 -101
-71 -38 -5 -41 -4 -25 7 10 7 39 30 65 50 55 44 61 46 61 14z m-1 -192 c2 -24
-95 -74 -150 -80 -46 -4 -51 -3 -36 8 11 7 53 39 95 70 73 54 77 56 84 35 3
-12 6 -27 7 -33z m2856 -44 c-16 -11 -36 -20 -44 -20 -8 0 -36 -13 -62 -30
-27 -16 -59 -32 -73 -36 -13 -3 -26 -14 -29 -25 -4 -13 -14 -19 -33 -19 -33 0
-27 8 42 53 27 18 58 46 69 64 19 31 22 32 90 33 l70 0 -30 -20z m-901 -488
c6 -11 -111 -68 -121 -59 -8 8 -9 8 47 40 47 28 65 33 74 19z m166 -125 c0
-23 -33 -45 -85 -57 -106 -25 -117 -22 -94 21 6 12 19 19 32 18 12 -1 30 1 40
6 10 4 23 2 31 -4 16 -13 42 -6 50 15 7 18 26 18 26 1z m-28 -103 c14 -9 9
-24 -9 -31 -10 -3 -30 -14 -44 -24 -27 -19 -49 -11 -49 18 0 7 -8 12 -17 11
-67 -5 -71 16 -5 30 43 9 106 7 124 -4z m-158 -57 c26 -14 26 -29 0 -21 -8 2
-21 6 -30 9 -8 3 -12 9 -9 15 8 13 8 13 39 -3z m-104 -207 c-20 -13 -43 -13
-35 0 3 6 16 10 28 10 18 0 19 -2 7 -10z m-254 -17 c-2 -5 -21 -17 -42 -28
-27 -14 -38 -17 -41 -8 -3 9 -11 8 -29 -3 -20 -14 -146 -43 -204 -48 -31 -2
-24 17 10 30 163 60 178 64 243 64 38 0 66 -3 63 -7z"/>
<path d="M2630 8541 c0 -11 21 -19 38 -14 21 8 13 23 -13 23 -14 0 -25 -4 -25
-9z"/>
<path d="M2694 8404 c-18 -14 -18 -14 6 -3 31 14 36 19 24 19 -6 0 -19 -7 -30
-16z"/>
<path d="M1442 7560 c0 -14 2 -19 5 -12 2 6 2 18 0 25 -3 6 -5 1 -5 -13z"/>
<path d="M6366 5751 c-80 -25 -91 -31 -99 -57 -6 -16 -27 -55 -49 -86 -21 -31
-38 -59 -38 -62 0 -16 28 -2 69 32 25 21 64 51 86 65 22 15 48 44 59 66 13 27
29 44 55 54 58 24 13 17 -83 -12z"/>
<path d="M878 5293 c7 -3 16 -2 19 1 4 3 -2 6 -13 5 -11 0 -14 -3 -6 -6z"/>
<path d="M6077 5223 c-48 -72 -68 -94 -132 -138 -48 -33 -40 -30 45 14 36 19
81 48 101 65 20 17 65 46 100 65 35 19 73 40 84 49 19 14 19 14 -5 7 -28 -8
-82 -7 -122 1 -24 5 -31 -1 -71 -63z"/>
<path d="M5470 5057 c-34 -11 -34 -11 -9 -15 15 -1 42 4 60 12 31 13 32 14 9
14 -14 0 -41 -5 -60 -11z"/>
<path d="M8010 4878 c-104 -90 -246 -231 -409 -406 -122 -132 -300 -295 -418
-386 -44 -33 -63 -54 -63 -69 0 -13 -8 -34 -17 -47 l-17 -24 29 21 c69 49 370
305 484 412 68 64 156 153 194 199 38 45 75 81 81 79 6 -2 11 -29 11 -66 0
-60 0 -61 17 -39 34 44 109 212 135 303 3 11 19 37 35 58 16 20 28 37 26 37
-2 0 -41 -33 -88 -72z"/>
<path d="M3718 4879 c-65 -32 -118 -62 -118 -65 0 -15 80 11 130 41 53 33 121
84 110 84 -3 0 -58 -27 -122 -60z"/>
<path d="M6060 4890 c-10 -6 -11 -12 -5 -19 6 -5 31 -2 65 9 l55 19 -50 0
c-27 0 -57 -4 -65 -9z"/>
<path d="M5830 4871 c-16 -31 -12 -41 16 -41 31 0 56 -23 48 -44 -4 -11 -11
-13 -22 -7 -10 5 -41 7 -71 6 -45 -3 -59 -8 -85 -35 l-31 -32 40 17 c22 9 46
19 53 22 32 13 6 -10 -57 -51 -38 -24 -72 -49 -75 -55 -11 -17 130 36 204 77
70 39 150 99 150 113 0 5 -9 4 -20 -3 -10 -7 -22 -9 -26 -6 -11 12 5 40 20 35
8 -3 17 1 20 9 4 11 -9 14 -74 14 -68 0 -81 -3 -90 -19z"/>
<path d="M5027 4703 c-13 -13 -7 -24 11 -19 10 3 37 7 60 8 24 1 45 5 48 10 6
9 -110 11 -119 1z"/>
<path d="M5755 4379 c-16 -5 -79 -16 -140 -25 -107 -15 -215 -52 -215 -73 0
-5 -30 -35 -66 -65 -64 -55 -72 -65 -36 -47 66 32 221 101 242 107 21 6 116
46 240 101 30 14 16 15 -25 2z"/>
<path d="M3836 4323 c-43 -4 -103 -29 -93 -40 5 -5 198 35 205 42 5 5 -24 4
-112 -2z"/>
<path d="M4016 4321 c-4 -5 3 -7 14 -4 23 6 26 13 6 13 -8 0 -17 -4 -20 -9z"/>
<path d="M7170 4257 c-128 -100 -205 -145 -280 -165 -41 -11 -88 -26 -105 -33
-29 -12 -27 -13 55 -24 100 -14 99 -15 218 97 39 37 76 68 80 68 5 0 28 23 51
50 23 28 41 50 39 50 -2 0 -28 -19 -58 -43z"/>
<path d="M3485 4209 c-44 -16 -64 -26 -45 -23 33 6 130 41 139 50 9 9 -17 1
-94 -27z"/>
<path d="M3782 4193 c-40 -9 -71 -18 -68 -20 4 -5 168 26 175 33 8 7 -33 2
-107 -13z"/>
<path d="M7898 4113 c-20 -27 -54 -78 -76 -114 -22 -37 -63 -98 -91 -138 -28
-39 -49 -71 -47 -71 9 0 157 191 198 255 41 62 66 115 56 115 -2 0 -20 -21
-40 -47z"/>
<path d="M3420 4101 c-112 -33 -252 -87 -288 -110 -24 -15 49 -22 112 -10 66
12 85 4 67 -30 -13 -23 -109 -106 -162 -138 -50 -31 -188 -85 -199 -78 -6 4
-36 -9 -68 -28 -67 -41 -290 -155 -452 -231 -63 -30 -171 -86 -240 -125 -69
-38 -131 -70 -138 -71 -22 0 -272 -126 -370 -185 -52 -31 -96 -54 -98 -52 -5
5 62 61 126 104 25 17 111 65 193 108 81 42 147 78 147 80 0 28 -494 -254
-537 -306 -17 -21 20 -70 38 -51 10 9 10 12 1 12 -7 0 -12 8 -12 18 0 13 6 10
23 -12 13 -16 29 -26 35 -22 17 10 22 -7 7 -28 -9 -12 -20 -16 -31 -12 -11 4
-26 -1 -40 -15 l-22 -21 -11 38 c-6 22 -11 47 -11 57 0 11 -5 17 -12 14 -14
-4 -14 -6 3 -105 6 -35 9 -66 6 -69 -3 -2 -15 17 -28 44 -15 33 -23 43 -26 31
-5 -20 -21 -23 -43 -8 -13 9 -13 12 3 24 9 7 17 19 17 25 0 7 5 9 10 6 6 -3
10 -1 10 4 0 44 -137 -87 -172 -164 -7 -15 -50 -57 -98 -94 -71 -57 -172 -145
-265 -232 -19 -19 -19 -19 10 -10 28 8 133 49 217 85 21 9 38 12 38 7 0 -15
-158 -201 -264 -311 -80 -84 -100 -100 -126 -100 -65 0 -85 -21 -129 -137 -50
-132 -82 -197 -163 -333 -35 -58 -62 -112 -62 -120 1 -8 2 -19 3 -24 1 -13 24
10 27 27 2 13 49 89 162 260 130 197 336 421 462 504 41 27 109 74 150 104 90
67 117 82 131 73 6 -3 -27 -45 -78 -99 -243 -256 -402 -445 -504 -600 -66
-101 -111 -177 -114 -195 -2 -8 -11 -35 -20 -60 -23 -61 -27 -92 -16 -109 11
-17 47 -8 158 36 35 13 80 26 100 28 21 3 62 8 91 13 62 11 70 -3 10 -18 -101
-25 -177 -53 -229 -85 -30 -19 -64 -33 -75 -33 -58 5 -253 -168 -270 -238 -3
-16 -16 -37 -28 -46 -20 -17 -20 -17 -1 -13 48 9 125 13 125 6 0 -4 -11 -14
-25 -21 -24 -13 -77 -91 -73 -107 1 -4 -15 -25 -35 -46 -53 -55 -50 -82 15
-154 58 -65 72 -76 94 -71 13 2 10 11 -15 41 l-30 39 29 40 c17 23 30 51 30
63 0 12 9 34 21 49 20 25 153 131 192 152 16 9 16 11 -8 24 -20 11 -25 21 -25
51 0 63 22 97 104 158 77 58 242 156 302 180 l31 12 -28 28 c-58 59 -9 110
145 150 63 17 87 28 112 55 32 34 109 72 206 102 25 8 58 26 73 39 14 14 39
32 54 40 28 14 29 13 34 -11 3 -18 -1 -29 -14 -37 -48 -30 9 -53 103 -41 87
11 180 32 191 43 6 6 23 11 37 11 15 0 53 9 86 19 71 23 101 29 102 19 3 -16
-12 -44 -32 -60 -21 -16 -21 -16 6 -23 29 -7 98 11 98 25 0 5 13 8 30 8 16 -1
36 5 45 12 13 10 15 9 15 -6 -1 -40 -84 -73 -185 -74 -65 -1 -46 -12 70 -41
100 -24 192 -71 205 -103 4 -12 17 -30 27 -41 19 -20 18 -20 -213 -77 -192
-47 -256 -68 -368 -118 -86 -39 -155 -63 -189 -67 -115 -12 -330 -93 -367
-138 -17 -20 -8 -22 139 -33 123 -10 156 -21 134 -43 -9 -9 -16 -7 -28 5 -14
14 -28 16 -79 10 -140 -15 -256 -60 -256 -98 0 -6 6 -22 13 -36 12 -23 10 -30
-26 -81 -27 -39 -38 -64 -35 -83 2 -14 8 -26 13 -26 6 0 80 37 165 82 177 94
236 117 301 118 25 0 70 7 100 16 58 18 247 21 448 8 l105 -7 -21 34 c-12 19
-49 52 -82 74 -33 22 -60 43 -60 47 -1 3 34 9 77 13 101 10 142 26 142 58 0
34 -33 73 -80 93 -72 32 -50 41 54 24 107 -17 186 -74 186 -133 0 -26 -56 -55
-119 -62 -88 -10 -89 -12 -27 -56 40 -29 59 -49 63 -70 5 -28 7 -29 67 -30 33
0 81 -4 106 -8 l45 -8 -30 -12 c-16 -7 -66 -26 -110 -42 -88 -32 -88 -32 -265
-118 l-125 -62 60 6 c33 3 130 13 215 21 85 8 209 16 275 18 66 3 271 11 455
20 184 8 533 20 775 26 610 14 940 36 1310 86 61 8 178 19 260 24 361 21 1086
180 1550 340 175 61 534 196 611 230 48 22 81 30 123 30 51 0 62 -4 97 -34
l39 -34 98 92 c224 208 252 236 227 227 -29 -10 -113 -47 -360 -156 -419 -185
-801 -320 -827 -294 -6 6 -21 5 -39 -2 -16 -6 -60 -11 -99 -11 -38 0 -114 -9
-169 -19 -121 -23 -211 -24 -262 -3 -43 18 -78 17 -353 -12 -79 -8 -144 -13
-145 -12 -26 70 -78 99 -156 87 -61 -9 -148 -24 -197 -35 -31 -6 -33 -5 -33
22 0 16 -10 42 -23 58 -37 46 -131 46 -250 0 -11 -4 -13 1 -10 20 3 16 -1 32
-12 42 -14 15 -23 16 -56 7 -28 -7 -39 -7 -36 0 4 12 8 14 92 55 128 61 359
193 435 247 43 32 129 97 190 146 145 115 163 121 176 53 l7 -36 39 60 c21 33
54 98 73 146 31 79 32 85 12 69 -354 -287 -418 -331 -699 -487 -83 -46 -90
-30 -10 21 31 20 154 106 272 191 118 85 253 182 300 216 47 33 137 104 200
157 63 53 133 105 155 115 47 22 239 205 335 319 37 44 120 135 184 202 64 67
116 128 116 135 0 7 53 66 118 133 114 118 173 183 283 315 81 97 91 113 24
40 -202 -223 -498 -504 -595 -565 -22 -14 -105 -89 -185 -168 -181 -178 -209
-201 -394 -328 -255 -175 -271 -187 -345 -243 -107 -82 -280 -188 -454 -280
-86 -46 -227 -120 -312 -166 -164 -88 -234 -122 -419 -202 -133 -57 -177 -60
-78 -5 37 21 67 40 67 42 0 2 -53 -21 -117 -52 -331 -155 -716 -303 -1018
-388 -88 -25 -194 -56 -235 -70 -41 -13 -178 -51 -305 -84 -126 -34 -259 -70
-295 -81 -73 -22 -80 -23 -80 -12 0 11 208 76 470 147 422 115 985 304 1205
405 39 18 117 54 175 80 58 27 130 58 160 70 30 12 116 52 190 89 74 37 189
94 255 127 165 82 311 171 307 188 -1 8 25 29 65 52 73 40 174 106 203 133 26
22 39 33 85 65 22 16 32 26 22 22 -52 -17 -128 -35 -173 -41 -49 -6 -50 -7
-64 -52 -7 -25 -26 -61 -42 -79 -50 -56 -211 -124 -358 -151 -80 -14 -104 -19
-225 -42 -27 -5 -54 -6 -58 -2 -6 6 239 261 251 261 7 0 165 109 237 165 44
34 96 72 115 85 l35 24 -25 -29 -25 -28 40 22 c83 46 201 139 250 196 27 33
97 103 155 155 223 201 405 408 420 477 l8 33 -51 -40 c-27 -22 -52 -38 -55
-36 -2 3 18 35 44 71 34 46 65 76 104 98 125 71 309 200 375 262 39 36 59 60
45 52 -14 -8 -38 -18 -54 -21 -15 -4 -65 -38 -110 -75 -136 -115 -386 -272
-386 -243 0 4 12 15 28 24 15 9 77 65 137 123 61 59 157 150 213 203 57 53
108 105 113 115 11 20 -120 -84 -231 -183 -82 -73 -208 -170 -221 -170 -20 0
-6 23 39 67 50 50 42 45 -48 -29 -66 -54 -269 -201 -395 -285 -95 -64 -226
-132 -359 -190 -151 -64 -117 -36 175 143 28 18 46 35 41 38 -12 7 -53 -10
-107 -45 -22 -14 -87 -52 -145 -84 -58 -32 -136 -83 -174 -114 -57 -46 -65
-56 -50 -62 11 -4 29 -8 42 -8 40 -2 23 -20 -75 -84 -146 -94 -297 -171 -398
-203 -49 -15 -84 -29 -77 -32 68 -22 -146 -229 -349 -337 -91 -48 -132 -78
-209 -151 -129 -123 -315 -290 -345 -310 -28 -18 -33 -34 -10 -34 8 0 15 7 15
16 0 12 5 13 23 8 12 -5 32 -8 45 -9 17 0 22 -5 20 -20 -2 -16 -10 -19 -35
-18 -24 2 -35 -2 -44 -18 -10 -19 -17 -20 -63 -15 -53 7 -53 7 -132 -52 -134
-99 -325 -222 -345 -222 -30 0 -22 17 19 42 74 46 171 121 166 130 -3 4 -26 8
-52 8 -59 1 -115 42 -105 78 3 13 13 22 24 22 11 0 22 6 25 14 4 10 16 12 45
9 31 -5 43 -2 53 12 12 16 18 17 60 6 27 -6 59 -19 72 -28 23 -14 26 -14 44 2
11 10 20 28 20 40 0 24 17 35 52 35 23 0 192 147 328 285 88 90 92 95 49 71
-25 -14 -51 -26 -58 -26 -23 0 143 171 244 251 58 46 108 95 120 116 14 27 60
66 160 136 77 55 163 110 190 124 46 22 47 24 15 18 -19 -4 -109 -51 -200
-105 -138 -82 -384 -210 -404 -210 -16 0 -3 31 21 48 l27 19 -65 -13 c-35 -8
-75 -14 -89 -14 -14 0 -45 -16 -69 -35 -24 -19 -48 -35 -52 -35 -19 0 -7 20
24 41 17 13 41 33 53 45 11 11 65 46 120 76 54 31 126 72 158 92 33 20 75 39
95 42 20 4 50 15 67 25 17 11 45 19 62 19 25 0 35 6 48 32 9 17 70 87 135 155
65 69 119 130 119 137 0 20 57 87 92 109 35 21 294 221 318 245 17 17 -98 -44
-178 -95 -30 -19 -104 -73 -165 -121 -124 -97 -144 -111 -133 -94 10 16 -24 3
-146 -59 -55 -27 -103 -47 -106 -44 -7 6 -13 1 93 72 50 32 111 67 137 77 51
19 226 122 273 161 45 37 14 30 -46 -11 -75 -50 -198 -111 -179 -89 8 10 -26
-3 -80 -30 -67 -33 -114 -66 -158 -109 -110 -107 -307 -214 -411 -223 -52 -5
-61 -4 -56 9 9 23 -22 30 -55 13 -47 -24 -58 -16 -21 15 19 16 33 32 30 34 -3
3 -50 -15 -105 -40 -54 -25 -130 -54 -169 -64 -38 -11 -121 -37 -183 -60 -62
-22 -166 -51 -230 -64 -64 -13 -182 -38 -261 -55 -79 -17 -147 -31 -150 -31
-3 0 1 -6 10 -13 13 -10 4 -12 -50 -13 -80 0 -216 -23 -204 -34 4 -4 32 -15
60 -25 50 -15 53 -18 47 -43 -4 -15 -13 -37 -20 -49 -18 -28 -18 -33 1 -33 8
0 15 -6 15 -14 0 -14 -23 -16 -36 -3 -12 12 -17 9 -80 -52 -34 -32 -89 -77
-123 -100 -33 -23 -61 -44 -61 -46 0 -2 12 0 28 4 15 4 47 7 72 5 25 -1 58 4
73 11 15 8 34 12 42 9 8 -3 29 1 46 10 18 9 45 16 60 16 16 0 46 7 68 16 49
19 117 16 114 -6 -2 -10 10 -21 32 -29 19 -7 35 -16 35 -21 0 -5 9 -12 21 -15
31 -10 88 -49 89 -60 0 -12 -45 -28 -175 -60 -117 -30 -188 -52 -231 -72 -17
-8 -41 -12 -56 -8 -25 6 -132 -12 -218 -38 -47 -14 -140 -11 -140 4 0 17 -47
9 -65 -11 -23 -26 -35 -25 -35 1 0 14 -5 19 -17 17 -13 -2 -19 -14 -21 -41 -4
-41 -8 -44 -33 -21 -16 14 -20 14 -42 -1 -17 -11 -27 -13 -32 -6 -11 18 -21
13 -46 -24 -19 -27 -29 -33 -46 -29 -13 4 -23 2 -23 -4 0 -5 -22 -12 -48 -15
-27 -3 -77 -15 -113 -27 -112 -38 -239 -25 -256 27 -3 8 50 26 180 60 21 5 13
23 -12 23 -17 0 -69 46 -60 53 2 2 22 8 44 15 22 6 81 23 130 38 50 15 124 35
165 45 41 10 105 26 141 35 l66 17 1 47 1 48 -120 -2 c-84 -1 -122 -5 -128
-14 -6 -10 -15 -10 -42 -1 -19 7 -38 15 -44 19 -5 5 -52 8 -103 8 -104 -1
-128 7 -55 18 26 3 54 11 62 17 17 14 134 48 181 52 19 2 47 8 61 13 14 6 52
13 85 17 32 4 63 10 69 13 5 3 31 6 58 6 51 1 57 6 118 89 16 22 17 27 5 27
-8 0 -21 -7 -30 -15 -8 -9 -55 -25 -103 -36 -48 -11 -106 -27 -128 -34 -22 -7
-65 -19 -95 -25 -30 -7 -86 -21 -124 -31 -38 -10 -73 -16 -78 -13 -5 3 -20 -1
-33 -10 -26 -17 -70 -22 -60 -7 8 14 65 41 87 41 22 0 35 27 21 41 -7 7 -17 7
-29 1 -11 -5 -46 -20 -79 -33 -33 -12 -94 -46 -136 -74 -78 -53 -139 -76 -139
-51 0 20 44 56 68 56 20 0 133 63 173 97 9 7 53 33 98 56 45 24 90 50 100 59
10 8 39 23 64 33 90 34 22 48 -73 15 -30 -11 -64 -19 -75 -20 -38 0 7 26 80
47 131 39 163 44 184 31 15 -9 23 -9 36 3 10 8 54 28 99 44 72 27 83 35 98 67
14 30 32 44 90 73 40 20 98 54 130 75 75 52 209 118 341 170 60 23 106 44 104
46 -5 6 -188 -44 -337 -91 -87 -27 -139 -37 -215 -42 -86 -4 -113 -11 -194
-44 -52 -22 -99 -43 -105 -48 -6 -4 -47 -20 -91 -36 -44 -16 -93 -37 -110 -47
-16 -10 -36 -18 -44 -18 -22 0 5 27 58 58 25 14 70 45 99 68 28 24 77 58 108
76 30 18 71 43 90 54 l36 21 -33 12 c-47 16 -49 16 -182 -45 -67 -31 -158 -71
-202 -89 -44 -18 -107 -45 -140 -59 -129 -55 -120 -26 20 67 50 32 186 113
304 180 161 91 209 122 195 127 -15 6 -6 16 51 52 68 44 387 218 399 218 4 0
73 33 154 74 81 40 158 77 171 81 14 4 86 48 160 97 75 49 157 99 183 111 47
22 61 37 33 37 -18 0 -65 21 -65 30 0 3 15 11 34 18 21 8 33 19 32 29 0 10 16
26 39 40 35 20 37 23 15 22 -14 0 -81 -17 -150 -38z m-1549 -1031 c-45 -38
-118 -76 -128 -66 -8 8 -3 12 86 63 69 40 87 42 42 3z m-211 -30 c0 -5 -10
-10 -22 -9 -22 0 -22 1 -3 9 11 5 21 9 23 9 1 1 2 -3 2 -9z m45 -50 c-3 -5
-15 -10 -26 -10 -11 0 -17 5 -14 10 3 6 15 10 26 10 11 0 17 -4 14 -10z m2925
-24 c0 -6 -66 -46 -76 -46 -5 0 7 11 26 25 33 23 50 30 50 21z m1115 -66 c-17
-33 -89 -78 -174 -110 -77 -29 -84 -20 -15 20 32 18 63 39 69 46 10 14 114 73
128 74 4 0 1 -13 -8 -30z m-1270 1 c-16 -16 -107 -62 -112 -57 -3 3 21 18 53
35 64 33 73 36 59 22z m1372 -16 c-12 -8 -15 -19 -10 -31 6 -18 6 -18 -10 -2
-25 25 -21 43 10 45 25 1 26 0 10 -12z m-116 -126 c-38 -57 -98 -132 -133
-166 -67 -65 -325 -243 -352 -243 -19 0 -21 21 -4 38 9 9 8 12 -6 12 -10 0
-56 -25 -104 -56 -98 -65 -241 -144 -261 -144 -25 0 8 28 168 149 272 206 385
285 535 376 32 20 68 47 78 61 11 14 41 35 67 49 26 13 54 31 62 41 12 14 14
15 17 2 2 -8 -28 -62 -67 -119z m-1461 32 c0 -28 -288 -206 -306 -189 -14 15
18 42 109 89 56 29 122 65 147 80 51 33 50 32 50 20z m-1110 -139 c0 -10 -50
-35 -57 -28 -3 3 29 24 55 35 1 1 2 -3 2 -7z m-1247 -16 c4 -10 -5 -16 -31
-19 -20 -3 -49 -9 -64 -12 -18 -5 -28 -3 -28 4 0 6 10 11 23 11 12 1 36 7 52
15 39 18 42 18 48 1z m-213 -60 c0 -2 -7 -6 -15 -10 -8 -3 -15 -1 -15 4 0 6 7
10 15 10 8 0 15 -2 15 -4z m2132 -51 c3 -3 3 -17 0 -31 -5 -26 -65 -64 -125
-78 -27 -6 -28 -5 -25 26 3 28 11 37 53 60 47 26 85 35 97 23z m-2022 -150 c0
-8 -4 -15 -10 -15 -5 0 -10 7 -10 15 0 8 5 15 10 15 6 0 10 -7 10 -15z m1440
-25 c0 -5 -7 -10 -15 -10 -8 0 -15 5 -15 10 0 6 7 10 15 10 8 0 15 -4 15 -10z
m-1505 -10 c-3 -5 -10 -10 -16 -10 -5 0 -9 5 -9 10 0 6 7 10 16 10 8 0 12 -4
9 -10z m3292 -127 c-9 -9 -20 -13 -24 -9 -4 4 -1 11 7 16 25 16 35 11 17 -7z
m-197 -293 c0 -24 -219 -147 -294 -164 -22 -6 -27 -4 -23 7 3 8 1 19 -5 25 -8
8 -1 21 25 45 27 26 56 40 119 56 46 12 94 26 108 31 34 12 70 12 70 0z m-619
-48 c7 -15 15 -30 17 -34 7 -15 -21 -8 -40 9 -21 19 -25 65 -4 57 7 -3 19 -17
27 -32z m-2714 12 c-3 -3 -12 -4 -19 -1 -8 3 -5 6 6 6 11 1 17 -2 13 -5z m-50
-31 c2 -5 -22 -24 -54 -40 -45 -24 -63 -29 -82 -22 -16 6 -37 4 -68 -6 -25 -9
-48 -14 -50 -11 -11 10 10 26 33 26 13 0 24 4 24 9 0 5 17 12 38 15 64 10 76
14 107 30 32 17 46 17 52 -1z m-567 -318 c0 -8 -4 -15 -10 -15 -5 0 -10 7 -10
15 0 8 5 15 10 15 6 0 10 -7 10 -15z m-80 -34 c0 -12 -21 -19 -42 -13 -29 7
-21 22 12 22 17 0 30 -4 30 -9z m2610 1 c0 -10 -85 -60 -117 -68 -42 -11 -19
13 45 46 61 31 72 35 72 22z m1650 -75 c0 -51 -98 -102 -146 -76 -20 10 -21
15 -12 33 21 39 70 63 131 65 22 1 27 -3 27 -22z m680 -121 c0 -2 -9 -6 -20
-9 -11 -3 -20 -1 -20 4 0 5 9 9 20 9 11 0 20 -2 20 -4z"/>
<path d="M2568 3870 c-83 -43 -124 -70 -103 -70 14 0 183 90 194 104 18 21 20
22 -91 -34z"/>
<path d="M2515 3766 c-38 -19 -89 -42 -112 -51 -37 -16 -66 -45 -44 -45 19 0
138 59 191 94 68 45 56 46 -35 2z"/>
<path d="M7634 3738 l-19 -23 23 19 c12 11 22 21 22 23 0 8 -8 2 -26 -19z"/>
<path d="M2835 3554 c-58 -39 -66 -49 -19 -26 22 11 46 28 53 36 19 22 12 20
-34 -10z"/>
<path d="M5113 3519 c-35 -22 -47 -47 -15 -30 17 9 59 51 51 51 -2 0 -19 -10
-36 -21z"/>
<path d="M4480 3125 c-14 -8 -47 -19 -73 -26 -42 -10 -68 -31 -55 -44 5 -6
117 48 143 69 25 19 18 20 -15 1z"/>
<path d="M2631 2754 c-25 -9 -54 -22 -65 -30 -12 -7 -30 -13 -41 -12 -25 2
-165 -43 -165 -53 0 -4 10 -13 23 -21 15 -11 46 -15 104 -13 l83 2 60 71 c33
40 57 72 53 72 -5 -1 -28 -8 -52 -16z"/>
<path d="M2320 2630 c-8 -5 -36 -12 -64 -16 -27 -3 -68 -15 -90 -25 l-41 -19
55 3 c31 2 71 11 89 20 19 9 40 17 47 17 13 0 29 18 22 25 -2 2 -10 0 -18 -5z"/>
<path d="M2128 2545 c-3 -3 -24 -7 -48 -10 -52 -5 -102 -24 -94 -36 9 -14 164
27 164 43 0 9 -14 11 -22 3z"/>
<path d="M2085 2390 c-3 -6 1 -7 9 -4 18 7 21 14 7 14 -6 0 -13 -4 -16 -10z"/>
<path d="M2040 2370 c0 -5 7 -7 15 -4 8 4 15 8 15 10 0 2 -7 4 -15 4 -8 0 -15
-4 -15 -10z"/>
<path d="M2550 2160 c-9 -17 -8 -20 14 -20 20 0 36 16 36 36 0 14 -41 1 -50
-16z"/>
<path d="M2510 2130 c0 -5 5 -10 10 -10 6 0 10 5 10 10 0 6 -4 10 -10 10 -5 0
-10 -4 -10 -10z"/>
<path d="M2240 2093 c-35 -7 -69 -19 -75 -25 -16 -17 79 -2 128 21 49 23 36
24 -53 4z"/>
<path d="M1875 1788 c-16 -5 -49 -18 -72 -29 -24 -10 -47 -19 -53 -19 -5 0
-42 -11 -82 -24 -40 -13 -107 -29 -148 -35 -122 -19 -172 -32 -225 -58 -87
-44 -105 -72 -65 -108 25 -23 17 -35 -24 -35 -57 0 -164 -62 -253 -147 -86
-83 -108 -112 -123 -162 l-9 -31 80 0 c46 0 79 -4 79 -10 0 -5 -18 -10 -40
-10 -48 0 -150 -50 -180 -87 -25 -32 -25 -34 0 -63 15 -18 18 -31 14 -61 -12
-74 68 -188 176 -252 l30 -18 0 27 c0 14 -16 48 -36 75 -31 42 -34 53 -28 86
10 57 26 83 87 140 52 49 174 120 265 154 40 15 42 17 20 22 -12 4 -47 7 -75
7 -29 0 -53 3 -53 6 0 22 50 80 101 118 84 64 188 95 349 106 114 7 132 11
201 44 70 34 243 86 334 100 116 19 149 28 132 38 -10 5 -17 21 -17 39 0 48
-25 94 -64 118 -36 22 -37 23 -54 4 -42 -47 -275 -87 -314 -54 -25 20 -23 25
16 46 19 11 40 29 47 42 7 13 21 23 31 23 10 0 18 5 18 10 0 12 -25 12 -65 -2z
m-69 -147 c-3 -5 -21 -9 -40 -8 -45 1 -35 17 10 17 19 0 33 -4 30 -9z"/>
<path d="M381 1444 c-19 -25 -27 -44 -17 -44 2 0 13 16 25 35 24 42 21 45 -8
9z"/>
</g>
</svg>
